# Blender 4.3.0
# www.blender.org
mtllib Bush1.mtl
o Bush1
v -0.253640 0.009452 0.322298
v 0.332557 0.035458 0.262907
v -0.194409 0.288747 0.251808
v 0.281114 0.243577 0.202332
v -0.203550 0.292674 -0.247166
v 0.232210 0.250232 -0.210529
v -0.336449 -0.001818 -0.301515
v 0.366355 0.020007 -0.312180
v 0.051870 0.161649 0.389551
v 0.050899 -0.002850 0.377343
v 0.341410 0.140992 0.284486
v 0.052741 0.317648 0.262698
v -0.241131 0.149849 0.293354
v 0.066375 0.402213 -0.006172
v 0.314165 0.277708 -0.015433
v 0.025964 0.293308 -0.287942
v -0.284633 0.339221 -0.014639
v 0.042552 0.136834 -0.421843
v 0.309596 0.132780 -0.285116
v 0.039359 -0.021380 -0.429756
v -0.341959 0.163595 -0.322586
v 0.064036 0.019348 -0.000427
v 0.385006 0.017066 -0.019991
v -0.373152 -0.032587 0.026002
v 0.330551 0.139725 0.015972
v -0.368112 0.172592 0.011842
v -0.115578 0.053574 0.363425
v -0.258652 0.068955 0.320747
v -0.120347 -0.006232 0.360531
v 0.050919 0.053867 0.416783
v -0.117643 0.146492 0.378303
v -0.120449 0.367391 0.184499
v -0.242334 0.314947 0.169452
v -0.107440 0.309691 0.283854
v 0.055648 0.414218 0.161553
v -0.136362 0.386898 -0.003474
v -0.128166 0.228871 -0.324603
v -0.262609 0.242175 -0.290007
v -0.107866 0.295557 -0.265077
v 0.019824 0.226224 -0.345572
v -0.165997 0.140710 -0.369368
v -0.140619 0.001513 -0.205301
v -0.382556 -0.034052 -0.159285
v -0.123771 0.042415 -0.289100
v 0.063015 0.021822 -0.160216
v -0.096991 0.028253 -0.001941
v 0.382590 0.072417 0.144535
v 0.338279 0.089253 0.273284
v 0.376243 0.004077 0.140675
v 0.351790 0.067742 -0.012657
v 0.400839 0.146352 0.157694
v -0.389053 0.046935 -0.145340
v -0.369121 0.036703 -0.323780
v -0.394415 0.054318 0.026524
v -0.343187 0.170482 -0.146997
v 0.193948 0.068437 0.353998
v 0.191885 0.020841 0.305446
v 0.182362 0.145131 0.338670
v 0.197291 0.228226 0.305923
v 0.314277 0.204813 0.243863
v 0.209441 0.284148 0.235467
v 0.054731 0.254342 0.351370
v -0.106801 0.228035 0.334109
v -0.225386 0.230728 0.279574
v 0.243234 0.329148 0.112420
v 0.296474 0.249742 0.108568
v 0.241401 0.335746 -0.019330
v 0.199781 0.319295 -0.176283
v 0.291369 0.274827 -0.144074
v 0.153523 0.274123 -0.252447
v 0.046159 0.321654 -0.178884
v -0.113181 0.342349 -0.161811
v -0.243427 0.325366 -0.169081
v 0.157987 0.212740 -0.299469
v 0.258234 0.196346 -0.236207
v 0.176809 0.119076 -0.331645
v 0.199830 0.052234 -0.401513
v 0.363875 0.055820 -0.318653
v 0.213872 -0.004012 -0.364971
v 0.041834 0.021033 -0.493900
v -0.221854 0.003803 -0.425260
v 0.218568 0.026270 -0.158191
v 0.422269 -0.004225 -0.175728
v 0.221669 0.015713 0.000541
v 0.212446 0.031131 0.149852
v 0.063446 0.032347 0.158282
v -0.096279 0.030858 0.159599
v -0.309937 -0.008470 0.169005
v 0.383439 0.027242 -0.168213
v 0.322834 0.129335 -0.147088
v 0.338983 0.214312 -0.137947
v 0.363608 0.215638 0.000873
v 0.371719 0.203139 0.136334
v -0.314596 0.063851 0.166890
v -0.313374 0.153155 0.166357
v -0.300721 0.247921 0.159575
v -0.349538 0.260017 -0.001569
v -0.305924 0.256339 -0.167099
vn -0.5636 -0.1428 0.8136
vn -0.2316 0.3567 0.9051
vn -0.3122 0.9419 0.1242
vn -0.4082 0.8882 0.2109
vn -0.1610 0.5009 -0.8504
vn -0.1653 0.5155 -0.8408
vn 0.2222 -0.9717 0.0801
vn 0.1455 -0.9894 0.0004
vn 0.8723 -0.2859 0.3968
vn 0.9323 -0.1295 0.3378
vn -0.9374 0.3477 -0.0202
vn -0.9705 0.2089 -0.1204
vn 0.3861 -0.5267 0.7573
vn 0.4279 -0.6545 0.6234
vn 0.3147 0.2985 0.9010
vn 0.4637 0.6076 0.6448
vn -0.1910 0.7969 0.5732
vn 0.0861 0.5227 0.8482
vn 0.4526 0.6384 0.6226
vn 0.2571 0.8827 0.3934
vn 0.6130 0.7523 -0.2414
vn 0.4632 0.8804 -0.1018
vn 0.0959 0.9589 -0.2670
vn -0.0555 0.9084 -0.4145
vn 0.3046 0.6045 -0.7361
vn 0.2973 0.5942 -0.7474
vn 0.1537 0.7388 -0.6562
vn 0.3592 0.5740 -0.7359
vn -0.0894 -0.8292 -0.5517
vn -0.0851 -0.9408 0.3281
vn 0.0262 -0.9874 0.1560
vn 0.0450 -0.9886 0.1438
vn 0.0213 -0.9943 0.1040
vn -0.1671 -0.9820 -0.0885
vn 0.0079 -0.9874 -0.1582
vn 0.0368 -0.9835 -0.1771
vn 0.8379 0.5451 0.0286
vn 0.6343 0.7717 0.0463
vn 0.9795 -0.1756 -0.0983
vn 0.4436 0.7435 -0.5005
vn 0.4399 0.7433 -0.5041
vn 0.4416 0.7434 -0.5024
vn 0.7807 0.6248 0.0109
vn 0.4386 0.8612 0.2568
vn -0.8438 -0.2094 0.4941
vn -0.9107 -0.0467 0.4104
vn -0.8577 0.1497 0.4918
vn -0.8039 0.2486 0.5403
vn -0.7723 0.5971 -0.2168
vn -0.7213 0.6458 -0.2504
vn -0.2858 0.0009 0.9583
vn -0.2783 -0.0243 0.9602
vn -0.0968 -0.0404 0.9945
vn -0.2536 -0.5522 0.7942
vn -0.2969 0.2364 0.9252
vn -0.0512 -0.1590 0.9859
vn -0.3961 0.7830 0.4796
vn -0.3729 0.7803 0.5020
vn 0.0230 0.8658 0.4998
vn -0.1024 0.7209 0.6854
vn -0.2665 0.9600 -0.0858
vn -0.0734 0.9913 0.1091
vn -0.1076 0.7133 -0.6925
vn -0.1541 0.6837 -0.7133
vn -0.1123 0.6805 -0.7241
vn -0.0947 0.6537 -0.7508
vn -0.0977 0.6315 -0.7692
vn -0.2009 0.5107 -0.8360
vn 0.1081 -0.9765 -0.1863
vn 0.2091 -0.8947 -0.3947
vn -0.6295 -0.6409 -0.4394
vn 0.0646 -0.9862 0.1524
vn 0.1028 -0.9946 -0.0161
vn -0.0560 -0.9883 0.1420
vn 0.9259 -0.1641 0.3401
vn 0.9273 -0.1064 0.3588
vn 0.9944 -0.0950 0.0466
vn 0.8115 0.5573 -0.1756
vn 0.9185 0.3467 -0.1903
vn 0.8894 -0.1422 -0.4345
vn -0.7487 -0.6614 -0.0457
vn -0.9495 -0.0223 -0.3129
vn -0.9947 -0.0886 0.0512
vn -0.9712 -0.2375 -0.0201
vn -0.9764 0.2122 -0.0396
vn -0.9275 0.3423 -0.1501
vn 0.2738 -0.6926 0.6673
vn 0.5001 -0.2136 0.8392
vn 0.5001 -0.2150 0.8388
vn 0.5001 -0.2134 0.8392
vn 0.5001 -0.2120 0.8396
vn 0.3191 0.2319 0.9189
vn 0.3788 0.2361 0.8949
vn 0.3725 0.2242 0.9005
vn 0.3944 0.8074 0.4388
vn 0.5887 0.5807 0.5624
vn 0.2655 0.7323 0.6271
vn 0.3163 0.7754 0.5465
vn 0.3421 0.3488 0.8725
vn 0.3793 0.2795 0.8821
vn -0.4027 0.4775 0.7809
vn -0.3394 0.5473 0.7650
vn -0.4024 0.2293 0.8863
vn -0.4934 0.4643 0.7356
vn -0.1010 0.4844 0.8690
vn -0.1593 0.3802 0.9111
vn 0.5859 0.6958 0.4154
vn 0.8222 0.5430 0.1704
vn 0.8124 0.5332 0.2361
vn 0.6223 0.7822 0.0305
vn 0.3574 0.9330 0.0418
vn 0.4041 0.9139 -0.0396
vn 0.5036 0.5619 -0.6563
vn 0.5152 0.5625 -0.6466
vn 0.2812 0.7407 -0.6101
vn 0.0192 0.9668 -0.2548
vn 0.0211 0.9051 -0.4246
vn 0.3366 0.9231 -0.1860
vn -0.1049 0.9038 -0.4149
vn -0.0937 0.9004 -0.4248
vn -0.1217 0.9852 -0.1209
vn -0.2719 0.9152 -0.2973
vn -0.0760 0.9569 -0.2804
vn 0.0711 0.9008 -0.4285
vn 0.5172 0.5439 -0.6609
vn 0.5062 0.5579 -0.6576
vn 0.4397 0.7432 -0.5042
vn 0.2749 0.3613 -0.8910
vn 0.5516 0.3680 -0.7486
vn 0.2945 0.6625 -0.6887
vn 0.4493 -0.1287 -0.8840
vn 0.3543 -0.4457 -0.8221
vn 0.3548 -0.4455 -0.8220
vn 0.3505 -0.4472 -0.8229
vn 0.3501 -0.4473 -0.8230
vn 0.4337 -0.7592 -0.4853
vn 0.3659 0.4900 -0.7912
vn 0.4531 0.7140 -0.5338
vn 0.1941 -0.9715 0.1357
vn -0.5000 -0.7104 -0.4953
vn -0.5440 0.1243 -0.8298
vn -0.1785 0.4334 -0.8833
vn -0.2111 0.4420 -0.8718
vn -0.2475 0.5130 -0.8219
vn 0.1060 -0.9842 0.1417
vn -0.1564 -0.9815 -0.1102
vn -0.1387 -0.9851 0.1015
vn -0.0001 -0.9978 -0.0664
vn -0.0226 -0.9976 -0.0659
vn 0.0288 -0.9995 -0.0157
vn -0.1491 -0.9693 0.1955
vn 0.0869 -0.9947 -0.0543
vn 0.1424 -0.9887 -0.0466
vn -0.0171 -0.9870 -0.1596
vn -0.0034 -0.9967 0.0816
vn 0.0032 -0.9967 0.0816
vn -0.0035 -0.9967 0.0816
vn -0.0236 -0.9946 0.1012
vn -0.0613 -0.9802 -0.1883
vn 0.1828 -0.9820 0.0477
vn 0.1840 -0.9794 0.0839
vn 0.2166 -0.9762 0.0148
vn -0.0554 -0.9983 0.0163
vn 0.0100 -0.9966 0.0817
vn 0.6125 0.7825 -0.1120
vn 0.9917 0.0470 -0.1200
vn 0.8178 0.5755 0.0030
vn 0.8508 0.5203 -0.0733
vn 0.8516 0.5197 -0.0687
vn 0.8515 0.5198 -0.0689
vn 0.8508 0.5203 -0.0734
vn 0.9636 0.2302 0.1361
vn 0.5860 0.5614 -0.5843
vn 0.6033 0.4051 -0.6870
vn 0.7842 0.6016 -0.1524
vn 0.7854 0.6002 -0.1515
vn 0.7910 0.5939 -0.1470
vn 0.7921 0.5926 -0.1462
vn 0.8942 -0.4201 -0.1546
vn 0.9825 -0.1830 -0.0348
vn 0.4848 0.8639 0.1362
vn 0.5560 0.7808 0.2849
vn 0.7358 0.5575 0.3844
vn 0.7584 0.5310 0.3779
vn 0.8563 0.2745 -0.4375
vn 0.9061 -0.4129 -0.0924
vn -0.9356 -0.0500 0.3495
vn -0.9368 -0.0700 0.3429
vn -0.8991 0.3020 0.3169
vn -0.8689 0.0148 0.4947
vn -0.9419 0.0149 0.3355
vn -0.8495 0.2468 0.4663
vn -0.6490 0.5814 0.4907
vn -0.6687 0.5017 0.5487
vn -0.7477 0.6141 0.2528
vn -0.7233 0.6368 0.2669
vn -0.9234 0.2419 0.2979
vn -0.9261 0.1485 0.3468
vn -0.6265 0.5514 -0.5508
vn -0.5038 0.8199 -0.2720
vn -0.6068 0.7366 -0.2987
vn -0.9190 0.3937 -0.0219
vn -0.9193 0.3641 -0.1491
vn -0.9531 0.1634 -0.2548
vt 0.652214 0.456614
vt 0.580516 0.491524
vt 0.638266 0.417074
vt 0.568130 0.451682
vt 0.653566 0.661177
vt 0.588810 0.662206
vt 0.661600 0.581385
vt 0.606748 0.582385
vt 0.622664 0.857775
vt 0.536913 0.816216
vt 0.646346 0.818950
vt 0.584174 0.790692
vt 0.903571 0.364170
vt 0.875656 0.365070
vt 0.900386 0.343637
vt 0.875773 0.346857
vt 0.915613 0.583363
vt 0.891426 0.515847
vt 0.949191 0.582392
vt 0.918077 0.516526
vt 0.519060 0.726617
vt 0.459392 0.733050
vt 0.474291 0.821444
vt 0.765914 0.401298
vt 0.788483 0.377378
vt 0.833086 0.441732
vt 0.856106 0.420272
vt 0.814057 0.472050
vt 0.809355 0.511325
vt 0.866138 0.543685
vt 0.739697 0.493580
vt 0.737675 0.538719
vt 0.662133 0.493152
vt 0.666220 0.533919
vt 0.733349 0.596518
vt 0.816826 0.611880
vt 0.807905 0.552753
vt 0.814032 0.669982
vt 0.854160 0.669500
vt 0.796102 0.739493
vt 0.840243 0.727081
vt 0.728766 0.743862
vt 0.719976 0.792336
vt 0.658792 0.732512
vt 0.658896 0.780595
vt 0.718584 0.829660
vt 0.788134 0.812638
vt 0.779457 0.779327
vt 0.809215 0.850570
vt 0.873063 0.813099
vt 0.824654 0.893075
vt 0.904900 0.845309
vt 0.720289 0.945422
vt 0.703407 0.977219
vt 0.585207 0.919959
vt 0.893247 0.320123
vt 0.919982 0.322638
vt 0.901589 0.334385
vt 0.920378 0.349608
vt 0.935692 0.350826
vt 0.936577 0.330224
vt 0.934951 0.366459
vt 0.951137 0.365473
vt 0.933108 0.381176
vt 0.949548 0.381201
vt 0.918373 0.380976
vt 0.915666 0.402689
vt 0.902667 0.380053
vt 0.898961 0.399985
vt 0.955367 0.689284
vt 0.980568 0.702648
vt 0.954481 0.774396
vt 0.975682 0.784488
vt 0.906171 0.747547
vt 0.873738 0.730437
vt 0.840428 0.784075
vt 0.888211 0.663301
vt 0.892274 0.598494
vt 0.854942 0.609848
vt 0.459872 0.606129
vt 0.426265 0.580367
vt 0.501227 0.535853
vt 0.473540 0.517368
vt 0.535565 0.556543
vt 0.568519 0.577339
vt 0.605387 0.520843
vt 0.547451 0.652493
vt 0.560426 0.733137
vt 0.601958 0.729798
vt 0.562639 0.423809
vt 0.626933 0.391844
vt 0.710908 0.368020
vt 0.725617 0.397353
vt 0.741652 0.448092
vt 0.625518 0.542984
vt 0.736555 0.665198
vt 0.615112 0.769007
vt 0.731189 0.883105
vt 0.881155 0.332755
vt 0.919420 0.365312
vt 0.944669 0.514410
vt 0.979803 0.575099
vt 0.992764 0.656382
vt 0.964620 0.662536
vt 0.927092 0.662256
vt 0.448265 0.816162
vt 0.423022 0.744503
vt 0.411481 0.654029
vt 0.452486 0.647480
vt 0.507886 0.641722
vt 0.913900 0.469922
vt 0.902369 0.493186
vt 0.846644 0.565101
vt 0.820207 0.764850
vt 0.914976 0.858854
vt 0.851355 0.911110
vt 0.777804 0.965521
vt 0.748365 0.943893
vt 0.504615 0.895663
vt 0.508703 0.869996
vt 0.951240 0.336558
vt 0.956085 0.350402
vt 0.944199 0.393141
vt 0.930086 0.396401
vt 0.886122 0.395121
vt 0.881297 0.379650
vt 0.928890 0.841973
vt 0.911729 0.839280
vt 0.525329 0.451408
vt 0.548785 0.466586
s 1
usemtl initialShadingGroup.002
f 31/1/1 13/2/1 27/3/1
f 27/3/2 13/2/2 28/4/2
f 36/5/3 17/6/3 32/7/3
f 32/7/4 17/6/4 33/8/4
f 41/9/5 21/10/5 37/11/5
f 37/11/6 21/10/6 38/12/6
f 46/13/7 24/14/7 42/15/7
f 42/15/8 24/14/8 43/16/8
f 51/17/9 11/18/9 47/19/9
f 47/19/10 11/18/10 48/20/10
f 55/21/11 21/10/11 52/22/11
f 52/22/12 21/10/12 53/23/12
f 30/24/13 10/25/13 56/26/13
f 56/26/14 10/25/14 57/27/14
f 58/28/15 11/18/15 59/29/15
f 59/29/16 11/18/16 60/30/16
f 62/31/17 12/32/17 63/33/17
f 63/33/18 12/32/18 34/34/18
f 35/35/19 12/32/19 65/36/19
f 65/36/20 12/32/20 61/37/20
f 67/38/21 15/39/21 68/40/21
f 68/40/22 15/39/22 69/41/22
f 71/42/23 16/43/23 72/44/23
f 72/44/24 16/43/24 39/45/24
f 40/46/25 16/43/25 74/47/25
f 74/47/26 16/43/26 70/48/26
f 76/49/27 19/50/27 77/51/27
f 77/51/28 19/50/28 78/52/28
f 80/53/29 20/54/29 81/55/29
f 81/56/30 20/57/30 44/58/30
f 45/59/31 20/57/31 82/60/31
f 82/60/32 20/57/32 79/61/32
f 84/62/33 23/63/33 85/64/33
f 85/64/34 23/63/34 49/65/34
f 86/66/35 10/67/35 87/68/35
f 87/68/36 10/67/36 29/69/36
f 50/70/37 23/71/37 89/72/37
f 89/72/38 23/71/38 83/73/38
f 90/74/39 19/50/39 91/75/39
f 91/75/40 19/50/41 75/76/42
f 92/77/43 15/39/43 93/78/43
f 93/78/44 15/39/44 66/79/44
f 54/80/45 24/81/45 94/82/45
f 94/82/46 24/81/46 88/83/46
f 95/84/47 13/2/47 96/85/47
f 96/85/48 13/2/48 64/86/48
f 97/87/49 17/6/49 98/88/49
f 98/88/50 17/6/50 73/89/50
f 28/4/51 1/90/51 27/3/51
f 27/3/52 1/90/52 29/91/52
f 29/91/53 10/92/53 27/3/53
f 27/3/54 10/92/54 30/93/54
f 30/93/55 9/94/55 27/3/55
f 27/3/56 9/94/56 31/1/56
f 33/8/57 3/95/57 32/7/57
f 32/7/58 3/95/58 34/34/58
f 34/34/59 12/32/59 32/7/59
f 32/7/60 12/32/60 35/35/60
f 35/35/61 14/96/61 32/7/61
f 32/7/62 14/96/62 36/5/62
f 38/12/63 5/97/63 37/11/63
f 37/11/64 5/97/64 39/45/64
f 39/45/65 16/43/65 37/11/65
f 37/11/66 16/43/66 40/46/66
f 40/46/67 18/98/67 37/11/67
f 37/11/68 18/98/68 41/9/68
f 43/16/69 7/99/69 42/15/69
f 42/15/70 7/99/70 44/58/70
f 44/58/71 20/57/71 42/15/71
f 42/15/72 20/57/72 45/59/72
f 45/59/73 22/100/73 42/15/73
f 42/15/74 22/100/74 46/13/74
f 48/20/75 2/101/75 47/19/75
f 47/19/76 2/101/76 49/102/76
f 49/102/77 23/103/77 47/19/77
f 47/19/78 23/103/78 50/104/78
f 50/104/79 25/105/79 47/19/79
f 47/19/80 25/105/80 51/17/80
f 53/23/81 7/106/81 52/22/81
f 52/22/82 7/106/82 43/107/82
f 43/107/83 24/108/83 52/22/83
f 52/22/84 24/108/84 54/109/84
f 54/109/85 26/110/85 52/22/85
f 52/22/86 26/110/86 55/21/86
f 57/27/87 2/111/87 56/26/87
f 56/26/88 2/111/89 48/112/90
f 48/112/90 11/18/91 56/26/88
f 56/26/92 11/18/92 58/28/92
f 58/28/93 9/94/93 56/26/93
f 56/26/94 9/94/94 30/24/94
f 60/30/95 4/113/95 59/29/95
f 59/29/96 4/113/96 61/37/96
f 61/37/97 12/32/97 59/29/97
f 59/29/98 12/32/98 62/31/98
f 62/31/99 9/94/99 59/29/99
f 59/29/100 9/94/100 58/28/100
f 34/34/101 3/95/101 63/33/101
f 63/33/102 3/95/102 64/86/102
f 64/86/103 13/2/103 63/33/103
f 63/33/104 13/2/104 31/1/104
f 31/1/105 9/94/105 63/33/105
f 63/33/106 9/94/106 62/31/106
f 61/37/107 4/113/107 65/36/107
f 65/36/108 4/113/108 66/79/108
f 66/79/109 15/39/109 65/36/109
f 65/36/110 15/39/110 67/38/110
f 67/38/111 14/96/111 65/36/111
f 65/36/112 14/96/112 35/35/112
f 69/41/113 6/114/113 68/40/113
f 68/40/114 6/114/114 70/48/114
f 70/48/115 16/43/115 68/40/115
f 68/40/116 16/43/116 71/42/116
f 71/42/117 14/96/117 68/40/117
f 68/40/118 14/96/118 67/38/118
f 39/45/119 5/97/119 72/44/119
f 72/44/120 5/97/120 73/89/120
f 73/89/121 17/6/121 72/44/121
f 72/44/122 17/6/122 36/5/122
f 36/5/123 14/96/123 72/44/123
f 72/44/124 14/96/124 71/42/124
f 70/48/125 6/114/125 74/47/125
f 74/47/126 6/114/126 75/76/126
f 75/76/42 19/50/41 74/47/127
f 74/47/128 19/50/128 76/49/128
f 76/49/129 18/98/129 74/47/129
f 74/47/130 18/98/130 40/46/130
f 78/52/131 8/115/131 77/51/131
f 77/51/132 8/115/133 79/116/134
f 79/116/134 20/117/135 77/51/132
f 77/51/136 20/117/136 80/118/136
f 80/118/137 18/98/137 77/51/137
f 77/51/138 18/98/138 76/49/138
f 44/58/139 7/99/139 81/56/139
f 81/55/140 7/119/140 53/120/140
f 53/120/141 21/10/141 81/55/141
f 81/55/142 21/10/142 41/9/142
f 41/9/143 18/98/143 81/55/143
f 81/55/144 18/98/144 80/53/144
f 79/61/145 8/121/145 82/60/145
f 82/60/146 8/121/146 83/122/146
f 83/122/147 23/63/147 82/60/147
f 82/60/148 23/63/148 84/62/148
f 84/62/149 22/100/149 82/60/149
f 82/60/150 22/100/150 45/59/150
f 49/65/151 2/123/151 85/64/151
f 85/64/152 2/123/152 57/124/152
f 57/124/153 10/67/153 85/64/153
f 85/64/154 10/67/154 86/66/154
f 86/66/155 22/100/156 85/64/157
f 85/64/158 22/100/158 84/62/158
f 29/69/159 1/125/159 87/68/159
f 87/68/160 1/125/160 88/126/160
f 88/126/161 24/14/161 87/68/161
f 87/68/162 24/14/162 46/13/162
f 46/13/163 22/100/163 87/68/163
f 87/68/164 22/100/156 86/66/155
f 83/73/165 8/127/165 89/72/165
f 89/72/166 8/127/166 78/128/166
f 78/128/167 19/50/167 89/72/167
f 89/72/168 19/50/169 90/74/170
f 90/74/170 25/105/171 89/72/168
f 89/72/172 25/105/172 50/70/172
f 75/76/173 6/114/173 91/75/173
f 91/75/174 6/114/174 69/41/174
f 69/41/175 15/39/176 91/75/177
f 91/75/177 15/39/176 92/77/178
f 92/77/179 25/105/179 91/75/179
f 91/75/180 25/105/180 90/74/180
f 66/79/181 4/113/181 93/78/181
f 93/78/182 4/113/182 60/30/182
f 60/30/183 11/18/183 93/78/183
f 93/78/184 11/18/184 51/17/184
f 51/17/185 25/105/185 93/78/185
f 93/78/186 25/105/186 92/77/186
f 88/83/187 1/129/187 94/82/187
f 94/82/188 1/129/188 28/130/188
f 28/130/189 13/2/189 94/82/189
f 94/82/190 13/2/190 95/84/190
f 95/84/191 26/110/191 94/82/191
f 94/82/192 26/110/192 54/80/192
f 64/86/193 3/95/193 96/85/193
f 96/85/194 3/95/194 33/8/194
f 33/8/195 17/6/195 96/85/195
f 96/85/196 17/6/196 97/87/196
f 97/87/197 26/110/197 96/85/197
f 96/85/198 26/110/198 95/84/198
f 73/89/199 5/97/199 98/88/199
f 98/88/200 5/97/200 38/12/200
f 38/12/201 21/10/201 98/88/201
f 98/88/202 21/10/202 55/21/202
f 55/21/203 26/110/203 98/88/203
f 98/88/204 26/110/204 97/87/204
