# Blender 4.3.0
# www.blender.org
mtllib Tree1.mtl
o Tree1
v -0.572988 1.863769 0.799653
v -0.580316 2.318915 0.803147
v -0.533390 1.791342 -0.085767
v -0.533390 2.391342 -0.085767
v 0.750023 1.791342 0.843442
v 0.750023 2.391342 0.843442
v 0.829178 1.791342 -0.185751
v 0.796536 2.391342 -0.135276
v 0.079154 1.791342 -0.502369
v 0.079154 2.391342 -0.502369
v 0.079154 1.791342 1.043411
v 0.079154 2.391342 1.043411
v -0.370209 1.791342 -0.302400
v -0.325180 2.391342 0.750214
v -0.370209 2.391342 -0.302400
v -0.330170 1.791342 0.814417
v -0.520353 1.791342 0.315991
v -0.620877 2.391342 0.301766
v 0.702420 1.791342 0.301766
v 0.725272 2.337095 0.301766
v 0.079154 2.539161 0.297600
v 0.079154 1.744281 0.297600
v -0.370209 1.791342 0.297600
v -0.370209 2.495791 0.297600
v 0.466880 2.391342 -0.196730
v 0.529154 1.791342 0.993418
v 0.529154 1.791342 -0.302400
v 0.529154 2.391342 0.993418
v 0.529154 2.495791 0.297600
v 0.529154 1.791342 0.297600
v -0.579216 2.391342 0.022596
v 0.862506 1.791342 0.039260
v -0.579216 1.791342 0.022596
v 0.862506 2.391342 0.039260
v 0.079154 2.539161 -0.002400
v 0.079154 1.744281 -0.002400
v -0.370209 1.791342 -0.002400
v -0.370209 2.495791 -0.002400
v 0.529154 1.791342 -0.002400
v 0.529154 2.495791 -0.002400
v -0.559471 1.791342 0.632655
v 0.757440 2.391342 0.600834
v 0.079154 2.539161 0.597600
v 0.079154 1.744281 0.597600
v -0.370209 1.791342 0.597600
v -0.370209 2.495791 0.597600
v -0.666136 2.391342 0.599149
v 0.757440 1.791342 0.600834
v 0.529154 2.495791 0.597600
v 0.529154 1.791342 0.597600
v 0.304154 1.791342 -0.485705
v 0.304154 2.391342 1.039245
v 0.304154 1.744281 0.297600
v 0.304154 2.391342 -0.485705
v 0.304154 1.791342 1.039245
v 0.304154 2.539161 0.297600
v 0.304154 1.744281 -0.002400
v 0.304154 2.539161 -0.002400
v 0.304154 1.744281 0.597600
v 0.304154 2.539161 0.597600
v -0.145528 2.391342 -0.477372
v -0.145528 1.791342 0.909024
v -0.145528 1.791342 -0.477372
v -0.145528 2.391342 0.910671
v -0.145528 2.539161 0.297600
v -0.145528 1.744281 0.297600
v -0.145528 1.744281 -0.002400
v -0.145528 2.539161 -0.002400
v -0.145528 2.539161 0.597600
v -0.145528 1.744281 0.597600
v -0.669852 1.983367 0.874239
v -0.628965 1.949003 -0.157549
v 0.943459 1.949003 -0.275750
v 0.852114 1.949003 0.940955
v 0.077920 1.949003 1.177356
v 0.077920 1.949003 -0.650053
v -0.440652 1.949003 -0.413651
v -0.440652 1.949003 1.004980
v 0.833608 1.949003 0.300590
v -0.729926 1.949003 0.300590
v 0.597227 1.949003 1.118256
v 0.597227 1.949003 -0.413651
v 0.981920 1.949003 -0.009743
v -0.681849 1.949003 -0.029443
v -0.713164 1.949003 0.660406
v 0.873005 1.949003 0.650520
v 0.337574 1.949003 -0.630352
v 0.337574 1.949003 1.172432
v -0.181366 1.949003 1.054354
v -0.181366 1.949003 -0.620502
v -0.669852 2.152458 0.874239
v -0.628965 2.171909 -0.157549
v 0.943459 2.171909 -0.275750
v 0.852114 2.171909 0.940955
v 0.077920 2.171909 1.177356
v 0.077920 2.171909 -0.650053
v -0.440652 2.171909 -0.413651
v -0.377793 2.171909 0.907836
v 0.833608 2.171909 0.300590
v -0.729926 2.171909 0.300590
v 0.597227 2.171909 1.118256
v 0.597227 2.171909 -0.413651
v 0.981920 2.171909 -0.009743
v -0.681849 2.171909 -0.029443
v -0.795815 2.171909 0.671238
v 0.873005 2.171909 0.650520
v 0.337574 2.171909 -0.630352
v 0.337574 2.171909 1.172432
v -0.181366 2.171909 1.075875
v -0.181366 2.171909 -0.620503
v 0.228388 1.800000 -0.037318
v 0.150000 -0.000000 -0.150000
v 0.183422 1.617448 0.297829
v 0.150000 0.000000 0.150000
v -0.071612 1.800000 -0.037318
v -0.150000 -0.000000 -0.150000
v -0.071612 1.800000 0.262682
v -0.150000 0.000000 0.150000
v 0.326373 0.900000 -0.037318
v 0.026373 0.900000 0.262682
v 0.326373 0.900000 0.262682
v 0.026373 0.900000 -0.037318
v -0.061814 1.350000 0.316574
v 0.238186 1.350000 0.016574
v 0.184795 1.526689 0.316936
v -0.061814 1.350000 0.016574
v 0.247985 0.456239 -0.145101
v 0.247985 0.456239 0.154899
v -0.052015 0.456239 -0.145101
v -0.052015 0.456239 0.154899
v -0.225110 0.000000 0.000000
v 0.303498 1.800000 0.112682
v -0.146722 1.800000 0.112682
v 0.225110 0.000000 0.000000
v 0.401482 0.900000 0.112682
v -0.048737 0.900000 0.112682
v 0.313296 1.350000 0.166574
v -0.136924 1.350000 0.166574
v -0.127125 0.456239 0.004899
v 0.323095 0.456239 0.004899
v 0.000000 -0.000000 -0.191442
v 0.126223 1.630577 0.319893
v 0.000000 0.000000 0.191442
v 0.078388 1.800000 -0.078759
v 0.176373 0.900000 -0.078759
v 0.176373 0.900000 0.304124
v 0.088186 1.350000 -0.024868
v 0.133816 1.535833 0.329075
v 0.097985 0.456239 0.196341
v 0.097985 0.456239 -0.186543
v 0.228388 1.800000 0.262682
v 0.238186 1.350000 0.316574
v 0.078388 1.800000 0.304124
v 0.088186 1.350000 0.358016
v 0.236690 1.651887 0.371874
v 0.247191 1.565764 0.404686
v 0.178184 1.662235 0.391896
v 0.195400 1.571320 0.415488
v 0.254816 1.613460 0.390272
v 0.197505 1.569393 0.300156
v 0.103189 1.571590 0.324741
v 0.149599 1.603576 0.405383
v 0.242538 1.794039 0.574976
v 0.181359 1.796144 0.588528
v 0.272842 1.757794 0.654801
v 0.220682 1.752685 0.663916
v 0.268273 1.784414 0.612240
v 0.169367 1.754774 0.639366
v 0.083389 1.570339 0.331629
v -0.066713 1.575000 0.289628
v -0.141823 1.575000 0.139628
v -0.066713 1.575000 -0.010372
v 0.083287 1.575000 -0.051814
v 0.233287 1.575000 -0.010372
v 0.307417 1.620000 0.134239
v 0.233391 1.570241 0.290198
vn -0.8169 0.4652 -0.3410
vn 0.2041 0.6925 -0.6920
vn 0.8885 0.4565 0.0472
vn 0.0325 0.4872 0.8727
vn -0.0000 -1.0000 -0.0000
vn -0.1521 0.9268 0.3432
vn -0.1521 0.9269 0.3432
vn 0.0029 0.9487 0.3161
vn -0.0369 -0.9917 0.1233
vn 0.0160 0.5207 0.8536
vn -0.0931 0.5554 -0.8263
vn -0.7024 0.4835 -0.5223
vn -0.2791 0.8328 0.4781
vn -0.5423 0.5660 0.6209
vn -0.1895 0.9819 -0.0000
vn -0.0000 1.0000 -0.0000
vn -0.4151 0.9093 -0.0299
vn 0.7978 0.4154 0.4370
vn -0.8787 0.4544 -0.1462
vn 0.2047 -0.9788 -0.0000
vn 0.4239 0.8858 0.1888
vn 0.4780 0.5374 0.6948
vn 0.2725 0.9490 0.1584
vn 0.1095 -0.9924 0.0558
vn 0.5951 0.6315 -0.4970
vn 0.1968 0.9233 -0.3299
vn 0.1278 -0.9900 -0.0595
vn 0.8008 0.5680 -0.1898
vn -0.4181 0.8677 -0.2689
vn 0.0107 0.9576 -0.2879
vn -0.0053 -0.9954 -0.0961
vn -0.0009 -0.9954 -0.0957
vn -0.2077 0.9302 -0.3028
vn -0.8867 0.4435 -0.1306
vn 0.5254 0.8444 -0.1047
vn -0.7375 0.5593 0.3785
vn -0.7375 0.5593 0.3786
vn -0.3571 0.9337 -0.0271
vn 0.8636 0.4856 -0.1358
vn 0.1893 0.9819 -0.0000
vn 0.3606 0.8628 -0.3543
vn 0.0035 -0.9954 -0.0953
vn 0.0622 0.5565 -0.8285
vn 0.0010 -0.9944 0.1055
vn 0.1716 0.5285 0.8314
vn 0.1208 0.9505 0.2863
vn -0.2050 -0.9788 -0.0000
vn -0.0161 0.9568 -0.2902
vn -0.1271 -0.9901 -0.0601
vn -0.3652 0.5452 0.7546
vn -0.1066 0.9265 0.3609
vn -0.5299 0.5177 -0.6717
vn -0.1360 -0.9858 0.0981
vn -0.4738 -0.6441 -0.6005
vn -0.3600 -0.6419 0.6770
vn 0.1527 -0.6548 0.7402
vn 0.0547 -0.6818 -0.7294
vn 0.7908 -0.6011 -0.1150
vn -0.7334 -0.6774 0.0574
vn -0.7119 -0.7022 0.0123
vn 0.7737 -0.6233 -0.1131
vn 0.4896 -0.6390 -0.5932
vn 0.4240 -0.6635 0.6164
vn -0.6558 -0.7546 -0.0217
vn 0.7469 -0.5296 0.4021
vn -0.2018 -0.7564 0.6222
vn -0.6362 -0.6095 -0.4730
vn -0.0820 -0.6809 -0.7278
vn 0.0143 -0.6472 0.7622
vn -0.1984 -0.7393 0.6435
vn 0.8127 -0.5811 0.0432
vn 0.2854 -0.6274 -0.7245
vn -0.7449 -0.5903 -0.3109
vn -0.6236 -0.0000 -0.7817
vn -0.3969 -0.0443 0.9168
vn 0.2042 -0.0000 0.9789
vn 0.0757 -0.0000 -0.9971
vn 0.9937 -0.0000 -0.1119
vn -0.9382 -0.1811 0.2948
vn -0.9896 -0.0000 -0.1442
vn 0.9897 -0.0000 -0.1431
vn 0.6407 -0.0000 -0.7678
vn 0.5710 -0.0000 0.8209
vn -0.9814 -0.1803 -0.0660
vn 0.9023 -0.0000 0.4312
vn -0.4211 0.2091 0.8826
vn -0.8056 -0.0000 -0.5924
vn -0.1132 -0.0000 -0.9936
vn 0.0190 -0.0000 0.9998
vn -0.2397 0.2388 0.9410
vn 0.9974 -0.0000 0.0717
vn 0.3700 -0.0000 -0.9290
vn -0.9243 -0.0000 -0.3816
vn -0.2647 0.1090 0.9581
vn -0.8918 -0.0729 -0.4465
vn 0.8918 0.0729 0.4465
vn 0.2647 -0.1090 -0.9581
vn 0.2618 0.1839 -0.9475
vn 0.8640 -0.2577 0.4326
vn -0.8640 0.2577 -0.4326
vn -0.2618 -0.1839 0.9475
vn 0.2626 0.1653 -0.9506
vn 0.8876 0.1207 0.4445
vn -0.8876 -0.1207 -0.4445
vn -0.2626 -0.1653 0.9506
vn -0.2660 0.0468 0.9628
vn -0.8773 0.1931 -0.4393
vn 0.8773 -0.1931 0.4393
vn 0.2660 -0.0468 -0.9628
vn 0.8789 -0.1840 -0.4401
vn -0.8789 0.1840 0.4401
vn -0.8716 -0.2231 0.4365
vn 0.8716 0.2231 -0.4365
vn -0.8931 0.0491 0.4472
vn 0.8931 -0.0491 -0.4472
vn 0.8936 -0.0341 -0.4475
vn -0.8936 0.0341 0.4475
vn -0.2657 0.0674 -0.9617
vn 0.2657 -0.0674 0.9617
vn 0.2658 -0.0631 0.9620
vn -0.2658 0.0631 -0.9620
vn 0.2564 -0.2707 0.9279
vn -0.2564 0.2707 -0.9279
vn -0.2644 -0.1204 -0.9569
vn -0.8321 0.4213 0.3606
vn 0.3205 0.1300 0.9383
vn 0.3191 0.1298 0.9388
vn 0.2982 0.1390 0.9443
vn 0.2602 0.0814 0.9621
vn 0.1350 0.1205 0.9835
vn 0.1351 0.1206 0.9835
vn 0.1355 0.1214 0.9833
vn 0.9973 -0.0657 -0.0321
vn 0.0274 0.9031 -0.4285
vn -0.0372 -0.9088 0.4156
vn 0.8469 -0.3334 -0.4141
vn 0.8558 0.3972 -0.3314
vn 0.7857 0.1488 -0.6004
vn -0.5921 -0.5380 0.6000
vn -0.0939 0.8847 0.4567
vn -0.0207 0.8639 0.5033
vn -0.0732 0.8214 -0.5656
vn -0.9458 0.2918 -0.1428
vn -0.4450 -0.7174 0.5361
vn 0.1093 -0.8009 0.5887
vt 0.901950 0.821210
vt 0.881570 0.802819
vt 0.890178 0.794718
vt 0.912467 0.811078
vt 0.895785 0.632150
vt 0.879403 0.675690
vt 0.850828 0.649472
vt 0.856307 0.620379
vt 0.743145 0.668266
vt 0.770244 0.681745
vt 0.753096 0.697743
vt 0.727670 0.692353
vt 0.782038 0.860712
vt 0.787039 0.817007
vt 0.807243 0.844331
vt 0.814515 0.866414
vt 0.643315 0.711169
vt 0.646811 0.684359
vt 0.681172 0.683717
vt 0.683169 0.717813
vt 0.810293 0.806048
vt 0.830239 0.833955
vt 0.794826 0.730760
vt 0.799992 0.756526
vt 0.753937 0.771274
vt 0.751093 0.747508
vt 0.639827 0.794993
vt 0.638917 0.768001
vt 0.685371 0.771780
vt 0.676548 0.797833
vt 0.725599 0.746687
vt 0.727990 0.772500
vt 0.942672 0.749898
vt 0.915964 0.745287
vt 0.915333 0.721571
vt 0.943931 0.722741
vt 0.905583 0.772293
vt 0.931295 0.782987
vt 0.641958 0.843794
vt 0.639772 0.821712
vt 0.667258 0.819755
vt 0.662564 0.849293
vt 0.804145 0.782262
vt 0.767064 0.795538
vt 0.732702 0.801327
vt 0.742611 0.828650
vt 0.865445 0.755154
vt 0.873228 0.779055
vt 0.843212 0.791611
vt 0.835349 0.767436
vt 0.570489 0.841201
vt 0.568945 0.816855
vt 0.603996 0.819028
vt 0.605104 0.836497
vt 0.570176 0.790256
vt 0.571148 0.764069
vt 0.605442 0.765802
vt 0.604904 0.792343
vt 0.855255 0.704357
vt 0.859819 0.730181
vt 0.829463 0.742096
vt 0.823099 0.715941
vt 0.856956 0.818169
vt 0.573353 0.710785
vt 0.579020 0.672165
vt 0.609436 0.690869
vt 0.608220 0.711272
vt 0.829573 0.621617
vt 0.829081 0.647556
vt 0.796258 0.659398
vt 0.792934 0.631579
vt 0.836461 0.859047
vt 0.872412 0.842114
vt 0.572269 0.737719
vt 0.606514 0.738812
vt 0.847762 0.680728
vt 0.812990 0.689512
vt 0.749665 0.723938
vt 0.724550 0.721018
vt 0.786295 0.705910
vt 0.639690 0.739985
vt 0.684154 0.745560
vt 0.940215 0.695363
vt 0.911015 0.697028
vt 0.928349 0.659509
vt 0.516212 0.735417
vt 0.538521 0.710015
vt 0.552881 0.675521
vt 0.514965 0.787775
vt 0.513148 0.761514
vt 0.558227 0.835174
vt 0.534112 0.814843
vt 0.771410 0.639623
vt 0.971412 0.807485
vt 0.953335 0.793892
vt 0.965062 0.756057
vt 0.987834 0.764116
vt 0.705327 0.772915
vt 0.704493 0.803707
vt 0.702925 0.718040
vt 0.703723 0.745471
vt 0.991310 0.727456
vt 0.968886 0.725349
vt 0.964739 0.695511
vt 0.988690 0.692755
vt 0.721946 0.613126
vt 0.743088 0.626055
vt 0.717927 0.659102
vt 0.700659 0.645852
vt 0.829180 0.901560
vt 0.821677 0.883729
vt 0.846958 0.882300
vt 0.858432 0.904350
vt 0.900180 0.887737
vt 0.886188 0.862541
vt 0.919370 0.838821
vt 0.931597 0.856749
vt 0.857380 0.575833
vt 0.857926 0.598352
vt 0.829187 0.597191
vt 0.822266 0.577215
vt 0.959333 0.656919
vt 0.984222 0.655545
vt 0.705179 0.687084
vt 0.790493 0.601908
vt 0.783746 0.578754
vt 0.704808 0.833215
vt 0.946030 0.842531
vt 0.931209 0.826628
vt 0.808983 0.924417
vt 0.794729 0.894666
vt 0.898302 0.577548
vt 0.897376 0.602007
vt 0.703075 0.354586
vt 0.706868 0.405571
vt 0.670649 0.410269
vt 0.666759 0.357414
vt 0.937892 0.357635
vt 0.933763 0.410308
vt 0.894822 0.409612
vt 0.898503 0.355656
vt 0.743862 0.402641
vt 0.783464 0.409930
vt 0.785132 0.450129
vt 0.747833 0.455721
vt 0.861313 0.352720
vt 0.858523 0.407529
vt 0.821837 0.405347
vt 0.823327 0.350559
vt 0.858452 0.134893
vt 0.856036 0.242169
vt 0.820294 0.242992
vt 0.824454 0.141075
vt 0.786324 0.146883
vt 0.783385 0.247258
vt 0.746704 0.251090
vt 0.746402 0.146634
vt 0.930464 0.132786
vt 0.933033 0.246673
vt 0.892946 0.243046
vt 0.892638 0.130750
vt 0.710109 0.141494
vt 0.711736 0.250560
vt 0.676028 0.247192
vt 0.674349 0.134004
vt 0.780962 0.349632
vt 0.740054 0.351759
vt 0.709568 0.030465
vt 0.673835 0.023174
vt 0.935563 0.021647
vt 0.896050 0.022117
vt 0.783721 0.041991
vt 0.745367 0.036908
vt 0.859276 0.027309
vt 0.822444 0.033945
vt 0.974624 0.027987
vt 0.968031 0.140813
vt 0.972290 0.250024
vt 0.977251 0.356588
vt 0.973024 0.409273
vt 0.595672 0.382551
vt 0.606055 0.375560
vt 0.608667 0.395230
vt 0.596909 0.400781
vt 0.732748 0.414462
vt 0.735089 0.403096
vt 0.718458 0.418451
vt 0.710822 0.458713
vt 0.730274 0.393281
vt 0.718156 0.396441
vt 0.711802 0.405453
vt 0.628877 0.395015
vt 0.637693 0.397184
vt 0.642123 0.449618
vt 0.633009 0.453800
vt 0.647380 0.378548
vt 0.659779 0.378952
vt 0.657561 0.398101
vt 0.646035 0.396781
vt 0.615386 0.374807
vt 0.626481 0.375178
vt 0.619232 0.395242
vt 0.636929 0.375860
vt 0.649494 0.444096
vt 0.606064 0.469642
vt 0.597559 0.464869
vt 0.612108 0.450269
vt 0.612014 0.461260
vt 0.592648 0.457372
vt 0.599552 0.447381
vt 0.661568 0.445230
vt 0.622578 0.454277
vt 0.674538 0.463124
vt 0.968798 0.461959
vt 0.929634 0.462981
vt 0.891142 0.463569
vt 0.855733 0.462337
vt 0.820347 0.460134
s 1
usemtl initialShadingGroup.009
f 104/1/1 31/2/1 4/3/1 92/4/1
f 102/5/2 25/6/2 8/7/2 93/8/2
f 106/9/3 42/10/3 6/11/3 94/12/3
f 98/13/4 14/14/4 2/15/4 91/16/4
f 50/17/5 48/18/5 5/19/5 26/20/5
f 46/21/6 47/22/6 2/15/6 14/14/7
f 60/23/8 43/24/8 12/25/8 52/26/8
f 70/27/9 44/28/9 11/29/9 62/30/9
f 108/31/10 52/26/10 12/25/10 95/32/10
f 110/33/11 61/34/11 10/35/11 96/36/11
f 92/4/12 4/3/12 15/37/12 97/38/12
f 41/39/5 45/40/5 16/41/5 1/42/5
f 69/43/13 46/21/13 14/14/13 64/44/13
f 109/45/14 64/44/14 14/14/14 98/46/14
f 68/47/15 38/48/15 24/49/15 65/50/15
f 33/51/5 37/52/5 23/53/5 17/54/5
f 67/55/5 36/56/5 22/57/5 66/58/5
f 58/59/16 35/60/16 21/61/16 56/62/16
f 38/48/17 31/2/17 18/63/17 24/49/17
f 39/64/5 32/65/5 19/66/5 30/67/5
f 103/68/18 34/69/18 20/70/18 99/71/18
f 105/72/19 47/22/19 18/63/19 100/73/19
f 57/74/20 39/64/20 30/67/20 53/75/20
f 34/69/21 40/76/21 29/77/21 20/70/21
f 94/12/22 6/11/22 28/78/22 101/79/22
f 42/10/23 49/80/23 28/78/23 6/11/23
f 59/81/24 50/17/24 26/20/24 55/82/24
f 107/83/25 54/84/25 25/6/25 102/85/25
f 8/7/26 25/6/26 40/76/26 34/69/26
f 51/86/27 27/87/27 39/64/27 57/74/27
f 93/8/28 8/7/28 34/69/28 103/68/28
f 27/87/5 7/88/5 32/65/5 39/64/5
f 15/37/29 4/3/29 31/2/29 38/48/29
f 54/84/30 10/35/30 35/60/30 58/59/30
f 63/89/31 9/90/32 36/56/32 67/55/31
f 3/91/5 13/92/5 37/52/5 33/51/5
f 61/34/33 15/37/33 38/48/33 68/47/33
f 100/73/34 18/63/34 31/2/34 104/1/34
f 53/75/20 30/67/20 50/17/20 59/81/20
f 20/70/35 29/77/35 49/80/35 42/10/35
f 91/16/36 2/15/36 47/22/36 105/72/37
f 65/50/15 24/49/15 46/21/15 69/43/15
f 17/54/5 23/53/5 45/40/5 41/39/5
f 66/58/5 22/57/5 44/28/5 70/27/5
f 56/62/16 21/61/16 43/24/16 60/23/16
f 24/49/38 18/63/38 47/22/38 46/21/38
f 30/67/5 19/66/5 48/18/5 50/17/5
f 99/93/39 20/70/39 42/10/39 106/9/39
f 29/77/40 56/62/40 60/23/40 49/80/40
f 22/57/5 53/75/5 59/81/5 44/28/5
f 25/6/41 54/84/41 58/59/41 40/76/41
f 9/90/32 51/86/42 57/74/42 36/56/32
f 96/36/43 10/35/43 54/84/43 107/83/43
f 44/28/44 59/81/44 55/82/44 11/29/44
f 36/56/5 57/74/5 53/75/5 22/57/5
f 40/76/40 58/59/40 56/62/40 29/77/40
f 101/79/45 28/78/45 52/26/45 108/31/45
f 49/80/46 60/23/46 52/26/46 28/78/46
f 23/53/47 66/58/47 70/27/47 45/40/47
f 21/61/16 65/50/16 69/43/16 43/24/16
f 10/35/48 61/34/48 68/47/48 35/60/48
f 13/92/49 63/89/49 67/55/49 37/52/49
f 37/52/47 67/55/47 66/58/47 23/53/47
f 35/60/16 68/47/16 65/50/16 21/61/16
f 95/32/50 12/25/50 64/44/50 109/45/50
f 43/24/51 69/43/51 64/44/51 12/25/51
f 97/38/52 15/37/52 61/34/52 110/33/52
f 45/40/53 70/27/53 62/30/53 16/41/53
f 13/94/54 77/95/54 90/96/54 63/97/54
f 11/29/55 75/98/55 89/99/55 62/30/55
f 26/20/56 81/100/56 88/101/56 55/82/56
f 9/102/57 76/103/57 87/104/57 51/105/57
f 19/106/58 79/107/58 86/108/58 48/109/58
f 1/110/59 71/111/59 85/112/59 41/113/59
f 17/114/60 80/115/60 84/116/60 33/117/60
f 7/118/61 73/119/61 83/120/61 32/121/61
f 51/105/62 87/104/62 82/122/62 27/123/62
f 5/19/63 74/124/63 81/100/63 26/20/63
f 41/113/64 85/112/64 80/115/64 17/114/64
f 32/121/65 83/120/65 79/125/65 19/126/65
f 62/30/66 89/99/66 78/127/66 16/41/66
f 3/128/67 72/129/67 77/95/67 13/94/67
f 63/97/68 90/96/68 76/103/68 9/102/68
f 55/82/69 88/101/69 75/98/69 11/29/69
f 16/130/70 78/131/70 71/111/70 1/110/70
f 48/109/71 86/108/71 74/124/71 5/19/71
f 27/132/72 82/133/72 73/119/72 7/118/72
f 33/117/73 84/116/73 72/129/73 3/128/73
f 77/95/74 97/38/74 110/33/74 90/96/74
f 75/98/75 95/32/75 109/45/75 89/99/75
f 81/100/76 101/79/76 108/31/76 88/101/76
f 76/103/77 96/36/77 107/83/77 87/104/77
f 79/107/78 99/93/78 106/9/78 86/108/78
f 71/111/79 91/16/79 105/72/79 85/112/79
f 80/115/80 100/73/80 104/1/80 84/116/80
f 73/119/81 93/8/81 103/68/81 83/120/81
f 87/104/82 107/83/82 102/85/82 82/122/82
f 74/124/83 94/12/83 101/79/83 81/100/83
f 85/112/84 105/72/84 100/73/84 80/115/84
f 83/120/85 103/68/85 99/71/85 79/125/85
f 89/99/86 109/45/86 98/46/86 78/127/86
f 72/129/87 92/4/87 97/38/87 77/95/87
f 90/96/88 110/33/88 96/36/88 76/103/88
f 88/101/89 108/31/89 95/32/89 75/98/89
f 78/131/90 98/13/90 91/16/90 71/111/90
f 86/108/91 106/9/91 94/12/91 74/124/91
f 82/133/92 102/5/92 93/8/92 73/119/92
f 84/116/93 104/1/93 92/4/93 72/129/93
usemtl trunk:Material
f 154/134/94 169/135/94 170/136/94 123/137/94
f 138/138/95 171/139/95 172/140/95 126/141/95
f 176/142/96 175/143/96 132/144/96 151/145/96
f 147/146/97 173/147/97 174/148/97 124/149/97
f 150/150/98 145/151/98 119/152/98 127/153/98
f 140/154/99 135/155/99 121/156/99 128/157/99
f 139/158/100 136/159/100 122/160/100 129/161/100
f 149/162/101 146/163/101 120/164/101 130/165/101
f 145/151/102 147/146/102 124/149/102 119/152/102
f 135/155/103 137/166/103 152/167/103 121/156/103
f 136/159/104 138/138/104 126/141/104 122/160/104
f 146/163/105 154/134/105 123/137/105 120/164/105
f 143/168/106 149/162/106 130/165/106 118/169/106
f 131/170/107 139/158/107 129/161/107 116/171/107
f 134/172/108 140/154/108 128/157/108 114/173/108
f 141/174/109 150/150/109 127/153/109 112/175/109
f 112/175/110 127/153/110 140/154/110 134/172/110
f 118/176/111 130/177/111 139/158/111 131/170/111
f 120/178/112 123/179/112 138/138/112 136/159/112
f 119/152/113 124/149/113 137/166/113 135/155/113
f 130/177/114 120/178/114 136/159/114 139/158/114
f 127/153/115 119/152/115 135/155/115 140/154/115
f 124/149/116 174/148/116 175/143/116 137/166/116
f 123/179/117 170/180/117 171/139/117 138/138/117
f 116/171/118 129/161/118 150/150/118 141/174/118
f 114/173/119 128/157/119 149/162/119 143/168/119
f 121/156/120 152/167/120 154/134/120 146/163/120
f 122/160/121 126/141/121 147/146/121 145/151/121
f 128/157/122 121/156/122 146/163/122 149/162/122
f 129/161/123 122/160/123 145/151/123 150/150/123
f 126/141/124 172/140/124 173/147/124 147/146/124
f 142/181/125 161/182/125 162/183/125 157/184/125
f 113/185/126 160/186/126 176/142/127 151/145/126
f 142/187/128 113/185/128 151/145/128 153/188/128
f 125/189/129 148/190/129 154/134/129 152/167/129
f 148/190/130 161/191/131 169/135/132 154/134/130
f 156/192/133 159/193/133 167/194/133 165/195/133
f 113/196/134 142/197/134 157/198/134 155/199/134
f 148/200/135 125/201/135 156/192/135 158/202/135
f 125/201/136 160/203/136 159/193/136 156/192/136
f 159/193/137 155/199/137 163/204/137 167/194/137
f 159/193/138 160/203/138 113/196/138 155/199/138
f 162/183/139 161/182/139 148/200/139 158/202/139
f 165/205/140 167/206/140 168/207/140 166/208/140
f 168/207/141 167/206/141 163/209/141 164/210/141
f 155/199/142 157/198/142 164/211/142 163/204/142
f 157/184/143 162/183/143 168/207/143 164/210/143
f 162/183/144 158/202/144 166/212/144 168/207/144
f 158/202/145 156/192/145 165/195/145 166/212/145
f 169/135/132 161/191/131 142/187/130 153/188/130
f 170/136/94 169/135/94 153/188/94 117/213/94
f 171/139/117 170/180/117 117/214/117 133/215/117
f 172/140/95 171/139/95 133/215/95 115/216/95
f 173/147/124 172/140/124 115/216/124 144/217/124
f 174/148/97 173/147/97 144/217/97 111/218/97
f 175/143/116 174/148/116 111/218/116 132/144/116
f 176/142/127 160/186/126 125/189/126 152/167/126
f 137/166/96 175/143/96 176/142/96 152/167/96
