# Blender 4.3.0
# www.blender.org
mtllib TreeStump.mtl
o TreeStump
v -0.243892 -0.011614 0.263240
v -0.140138 0.395437 0.121636
v -0.215935 -0.016417 -0.216050
v -0.106312 0.349496 -0.107644
v 0.239778 -0.004965 0.265820
v 0.113114 0.389243 0.122317
v 0.210620 -0.017649 -0.211039
v 0.099613 0.338479 -0.104663
v -0.288686 -0.027398 -0.068050
v -0.267382 -0.019435 0.125134
v -0.140000 0.371795 0.057282
v -0.132722 0.354365 -0.023766
v 0.096443 -0.017649 -0.288800
v -0.095495 -0.017649 -0.288800
v -0.049506 0.346245 -0.140450
v 0.046276 0.341249 -0.140414
v 0.279915 -0.056492 0.095076
v 0.265578 -0.017649 -0.128298
v 0.121240 0.342710 -0.040143
v 0.139905 0.362940 0.043246
v -0.080541 -0.011925 0.242282
v 0.050413 -0.017649 0.335388
v 0.048315 0.397892 0.130708
v -0.064955 0.403406 0.143764
v 0.040667 0.339035 -0.064284
v 0.054032 0.372351 0.053243
v -0.042492 0.353456 -0.063647
v -0.055888 0.375488 0.052606
v -0.211480 0.064529 0.195190
v -0.210729 0.193189 0.219466
v -0.195179 0.267183 0.192159
v -0.163226 0.234600 -0.166351
v -0.191918 0.130634 -0.157475
v -0.185868 0.037930 -0.191935
v 0.151737 0.210154 -0.151651
v 0.182468 0.133249 -0.182468
v 0.179508 0.057536 -0.179442
v 0.165432 0.263802 0.187814
v 0.216157 0.155130 0.223267
v 0.208047 0.061686 0.237080
v 0.069094 0.265695 0.208915
v 0.073639 0.166157 0.276543
v 0.054287 0.032607 0.266480
v -0.069788 0.270607 0.201457
v -0.079360 0.223969 0.232242
v -0.083204 0.043740 0.220776
v 0.195339 0.217492 -0.047694
v 0.236575 0.142052 -0.055353
v 0.222126 0.057536 -0.075326
v 0.212337 0.239889 0.050866
v 0.223204 0.167572 0.075235
v 0.214642 0.057536 0.082255
v -0.036287 0.224148 -0.220279
v -0.084953 0.119943 -0.224366
v -0.034616 0.060631 -0.241013
v 0.033798 0.228023 -0.202832
v 0.079574 0.128137 -0.231213
v 0.041308 0.064540 -0.240033
v -0.206480 0.244508 0.087062
v -0.220232 0.164033 0.104492
v -0.222169 0.054783 0.081268
v -0.221360 0.225177 -0.045653
v -0.225059 0.120670 -0.071446
v -0.255270 0.028423 -0.054379
v -0.027107 0.193452 -0.299921
v -0.069441 0.143888 -0.304914
v -0.029143 0.096569 -0.329532
v 0.028935 0.208896 -0.299095
v 0.063854 0.150475 -0.312165
v 0.034816 0.099862 -0.328706
v -0.025167 0.296322 -0.365625
v -0.047898 0.281966 -0.405917
v -0.022949 0.272960 -0.439881
v 0.022487 0.297709 -0.365165
v 0.047410 0.284742 -0.404995
v 0.024706 0.274347 -0.439421
v -0.304485 -0.023416 0.012552
v -0.149584 0.364114 0.015860
v 0.254161 -0.017649 0.002865
v 0.143612 0.356467 0.003499
v 0.059276 0.355693 -0.004454
v -0.061175 0.364472 -0.004454
v -0.261375 0.041603 -0.002546
v -0.243792 0.142352 0.000533
v -0.234227 0.234842 0.020705
v 0.209834 0.057536 0.003465
v 0.226266 0.154812 0.011919
v 0.203155 0.228691 0.003457
v -0.160699 0.351196 -0.032191
v -0.130490 0.346626 -0.128264
v 0.056108 0.345700 -0.170706
v 0.123951 0.345700 -0.124500
v 0.170157 0.367107 0.050151
v 0.135938 0.397823 0.143899
v -0.070174 0.409827 0.172590
v -0.169935 0.400782 0.143185
v -0.169991 0.372053 0.062808
v -0.180986 0.361625 0.015308
v -0.057941 0.345700 -0.170706
v 0.149456 0.345700 -0.051011
v 0.175016 0.356404 -0.000430
v 0.056108 0.405528 0.157534
v -0.158364 0.381530 -0.036406
v -0.128867 0.377333 -0.130213
v 0.053329 0.376483 -0.171654
v 0.119572 0.376483 -0.126537
v 0.164688 0.396141 0.043993
v 0.131071 0.424347 0.134997
v -0.069974 0.435371 0.163544
v -0.167381 0.427064 0.134833
v -0.167437 0.400683 0.056352
v -0.178172 0.391107 0.009973
v -0.058030 0.376483 -0.171654
v 0.144474 0.376483 -0.054782
v 0.169432 0.386312 -0.005394
v 0.053329 0.431423 0.148844
v -0.144746 0.383856 -0.032616
v -0.114709 0.379207 -0.123628
v 0.052096 0.372447 -0.157131
v 0.109720 0.370172 -0.117408
v 0.151229 0.395590 0.044344
v 0.120156 0.422170 0.128500
v -0.073839 0.434752 0.150921
v -0.155350 0.425775 0.125719
v -0.154027 0.401588 0.055594
v -0.163790 0.393637 0.010320
v -0.052310 0.376518 -0.158553
v 0.132307 0.374706 -0.046793
v 0.155909 0.389021 0.001088
v 0.049815 0.430350 0.138331
v -0.025739 0.239470 -0.334867
v -0.059858 0.200407 -0.362244
v 0.030175 0.170419 -0.397223
v 0.056075 0.205971 -0.365004
v -0.026124 0.168244 -0.398530
v 0.025724 0.249016 -0.331859
vn -0.9734 0.2290 -0.0039
vn -0.3934 0.3393 -0.8544
vn 0.8903 0.2810 -0.3583
vn 0.1995 0.3495 0.9154
vn -0.0347 0.9480 -0.3164
vn 0.0775 0.9511 -0.2989
vn 0.0202 0.9536 -0.3005
vn -0.0004 0.9999 -0.0143
vn 0.0466 0.9729 -0.2267
vn 0.0517 0.9710 -0.2333
vn 0.0472 0.9728 -0.2269
vn 0.1077 0.9936 -0.0335
vn 0.0509 0.9709 -0.2341
vn -0.0094 0.9971 -0.0761
vn -0.0490 0.9826 -0.1791
vn -0.1777 0.2849 0.9419
vn 0.0372 0.2778 0.9599
vn 0.9209 0.2960 0.2537
vn 0.9595 0.2628 -0.1011
vn 0.4697 0.2108 -0.8573
vn 0.0826 0.3219 -0.9432
vn -0.8493 0.4062 -0.3371
vn -0.8598 0.3976 -0.3205
vn -0.8281 0.5220 -0.2046
vn -0.9439 0.2156 -0.2501
vn -0.9612 0.1224 -0.2473
vn -0.7603 0.5543 -0.3387
vn -0.9030 0.1556 -0.4006
vn -0.9070 0.1721 -0.3843
vn -0.0044 0.5157 -0.8568
vn -0.7815 -0.5512 -0.2922
vn 0.8769 0.4714 -0.0933
vn 0.4034 0.5817 -0.7063
vn 0.4110 -0.0839 -0.9078
vn 0.3912 0.4400 -0.8083
vn 0.8657 0.4988 -0.0414
vn 0.9928 -0.1197 -0.0014
vn 0.9740 0.2043 -0.0981
vn 0.8760 0.4803 0.0436
vn 0.9961 -0.0772 0.0428
vn 0.9174 0.3648 0.1590
vn -0.3315 0.6147 0.7157
vn -0.3049 -0.0427 0.9514
vn -0.0269 0.5589 0.8288
vn 0.0272 0.5576 0.8297
vn -0.1410 -0.1117 0.9837
vn -0.1361 0.4527 0.8812
vn 0.1351 0.6540 0.7444
vn 0.2697 -0.0167 0.9628
vn 0.2838 0.4849 0.8272
vn 0.7262 0.5734 -0.3792
vn 0.9217 -0.0596 -0.3833
vn 0.7999 0.4716 -0.3712
vn -0.3604 0.6234 -0.6939
vn -0.4109 0.1499 -0.8993
vn -0.4438 0.1446 -0.8844
vn -0.8596 0.5044 0.0814
vn -0.9960 -0.0065 0.0890
vn -0.9789 0.1989 0.0457
vn 0.8471 -0.1621 -0.5061
vn -0.8345 0.3177 0.4503
vn -0.1068 0.9560 -0.2734
vn 0.0525 -0.9264 -0.3729
vn 0.8555 -0.4457 -0.2635
vn -0.8466 0.5100 -0.1520
vn -0.0254 0.9615 -0.2736
vn -0.0244 0.9460 -0.3233
vn -0.8055 -0.1907 -0.5611
vn -0.0867 0.5153 0.8526
vn 0.0285 -0.3713 -0.9281
vn 0.8572 0.3145 0.4078
vn 0.9168 0.3948 -0.0606
vn 0.9675 -0.1904 0.1663
vn 0.8743 0.4752 0.0987
vn -0.9561 0.1247 0.2651
vn -0.9500 0.0497 0.3083
vn -0.7677 0.5914 0.2466
vn -0.9046 0.3479 0.2464
vn 0.9024 0.2512 -0.3501
vn -0.0748 0.9701 -0.2307
vn 0.1096 0.9682 -0.2250
vn 0.0313 0.9555 -0.2933
vn 0.9388 0.1120 -0.3258
vn -0.0967 0.2138 -0.9721
vn -0.0963 0.2140 -0.9721
vn -0.1037 0.2179 -0.9705
vn -0.2937 0.3182 0.9014
vn -0.1036 0.2184 -0.9703
vn -0.9310 0.3343 -0.1466
vn 0.9328 0.2452 0.2643
vn -0.8876 0.3761 0.2660
vn -0.0000 -0.0308 -0.9995
vn 0.0160 0.4922 0.8703
vn 0.5627 0.0254 -0.8262
vn -0.5050 -0.0280 -0.8627
vn 0.4456 0.5037 0.7401
vn 0.8549 0.4450 0.2665
vn -0.9531 0.0314 -0.3011
vn -0.1178 0.9894 -0.0853
vn -0.1977 0.9287 0.3136
vn -0.0288 0.9509 -0.3081
vn -0.0625 0.9919 -0.1106
vn -0.1104 0.9406 -0.3210
vn -0.1271 0.9565 -0.2626
vn -0.0183 0.9968 -0.0782
vn 0.0178 0.9899 0.1405
vn -0.2966 0.9525 0.0686
vn 0.0355 0.9847 -0.1707
vn 0.0619 0.9694 -0.2377
vn 0.0248 0.9964 -0.0807
vn -0.1235 0.9794 -0.1597
vn -0.0789 0.9760 -0.2029
vn 0.8824 0.3875 -0.2668
vn 0.9795 0.1939 0.0543
vn -0.8728 0.3619 0.3275
vn -0.9717 0.1298 0.1973
vn 0.8741 0.4105 0.2598
vn -0.4821 0.4688 0.7401
vn -0.9960 0.0849 -0.0288
vn 0.8819 0.0868 -0.4635
vn -0.8694 0.2881 -0.4015
vn -0.9183 0.0159 -0.3956
vn 0.1924 0.3373 0.9215
vn 0.2519 0.2679 -0.9299
vn 0.1225 0.3290 0.9363
vn 0.8874 0.4373 -0.1459
vn 0.8546 0.3975 0.3343
vn 0.0443 -0.6941 -0.7185
vn -0.1688 0.6069 0.7767
vn -0.7963 -0.3830 -0.4681
vn -0.7512 0.4841 0.4488
vn 0.8559 -0.3125 -0.4121
vt 0.282712 0.328341
vt 0.306546 0.439388
vt 0.239816 0.464489
vt 0.195579 0.353728
vt 0.535199 0.785207
vt 0.508077 0.887482
vt 0.435616 0.870983
vt 0.419664 0.757053
vt 0.240364 0.760423
vt 0.269591 0.882349
vt 0.205874 0.908993
vt 0.146638 0.800575
vt 0.593080 0.334831
vt 0.554833 0.448594
vt 0.489174 0.448976
vt 0.506896 0.323388
vt 0.896806 0.803271
vt 0.894444 0.737667
vt 0.945524 0.736979
vt 0.969797 0.790042
vt 0.898119 0.953495
vt 0.903024 0.887481
vt 0.967496 0.880761
vt 0.955229 0.928847
vt 0.782319 0.928379
vt 0.753637 0.891275
vt 0.809622 0.884440
vt 0.830909 0.944400
vt 0.867765 0.959014
vt 0.857266 0.894925
vt 0.747496 0.819946
vt 0.806976 0.821011
vt 0.851855 0.802727
vt 0.769794 0.776482
vt 0.830619 0.748701
vt 0.861097 0.733533
vt 0.388340 0.326680
vt 0.386773 0.440805
vt 0.711447 0.390909
vt 0.633143 0.480252
vt 0.750255 0.413755
vt 0.672807 0.503841
vt 0.356448 0.763107
vt 0.337668 0.869502
vt 0.644479 0.822708
vt 0.585746 0.931780
vt 0.693586 0.857878
vt 0.623832 0.957960
vt 0.813312 0.645172
vt 0.760164 0.694291
vt 0.724390 0.660205
vt 0.750826 0.604354
vt 0.717082 0.775957
vt 0.664979 0.728427
vt 0.586063 0.607130
vt 0.607945 0.548388
vt 0.583894 0.702921
vt 0.482977 0.519430
vt 0.428547 0.606093
vt 0.355108 0.607899
vt 0.309465 0.516681
vt 0.980870 0.336931
vt 0.987083 0.388228
vt 0.927134 0.392658
vt 0.918937 0.345465
vt 0.987083 0.507889
vt 0.965959 0.579946
vt 0.905412 0.567787
vt 0.902174 0.504265
vt 0.207338 0.617711
vt 0.190949 0.537291
vt 0.320040 0.667901
vt 0.222801 0.684221
vt 0.905361 0.216079
vt 0.854538 0.283480
vt 0.793953 0.236378
vt 0.861242 0.126394
vt 0.789630 0.352931
vt 0.735722 0.325518
vt 0.663010 0.146429
vt 0.690905 0.074617
vt 0.639391 0.237663
vt 0.504609 0.011571
vt 0.500036 0.096658
vt 0.358171 0.116262
vt 0.361312 0.063192
vt 0.513098 0.220711
vt 0.381010 0.279570
vt 0.224904 0.151830
vt 0.209762 0.041870
vt 0.271544 0.265541
vt 0.102339 0.652224
vt 0.105796 0.558403
vt 0.116877 0.732228
vt 0.471974 0.667266
vt 0.115798 0.202704
vt 0.101933 0.117005
vt 0.175486 0.282572
vt 0.851647 0.543959
vt 0.840135 0.580049
vt 0.776301 0.539713
vt 0.794296 0.516548
vt 0.867098 0.406165
vt 0.860024 0.451114
vt 0.811750 0.454068
vt 0.803958 0.423129
vt 0.980411 0.461808
vt 0.911838 0.447198
vt 0.957132 0.632194
vt 0.935576 0.679080
vt 0.878439 0.648201
vt 0.896731 0.609839
vt 0.759039 0.450094
vt 0.784494 0.435701
vt 0.778951 0.500165
vt 0.756268 0.482326
vt 0.808979 0.486300
vt 0.855816 0.366463
vt 0.789174 0.398413
vt 0.853705 0.494363
vt 0.820754 0.613145
vt 0.757788 0.567942
vt 0.108177 0.828547
vt 0.069984 0.770111
vt 0.034754 0.686915
vt 0.002781 0.616081
vt 0.133600 0.372379
vt 0.080727 0.305191
vt 0.035460 0.225252
vt 0.004968 0.160389
vt 0.198063 0.478800
vt 0.160221 0.933559
vt 0.280387 0.905384
vt 0.220085 0.934147
vt 0.995311 0.777914
vt 0.995311 0.882903
vt 0.386009 0.464021
vt 0.311899 0.459261
vt 0.979804 0.942036
vt 0.911784 0.979005
vt 0.872604 0.988858
vt 0.619221 0.501924
vt 0.547934 0.469407
vt 0.823477 0.974059
vt 0.761695 0.949897
vt 0.432044 0.899077
vt 0.342274 0.895091
vt 0.725706 0.900708
vt 0.719823 0.814729
vt 0.497552 0.910924
vt 0.746209 0.759813
vt 0.818922 0.722837
vt 0.858205 0.706449
vt 0.570569 0.954511
vt 0.563134 0.964991
vt 0.490008 0.921759
vt 0.340238 0.907351
vt 0.282919 0.916944
vt 0.610985 0.510839
vt 0.543015 0.477285
vt 0.381213 0.472879
vt 0.313738 0.469611
vt 0.255817 0.499620
vt 0.250305 0.488822
vt 0.599352 0.987182
vt 0.609223 0.979343
vt 0.428798 0.910689
vt 0.223848 0.946881
vt 0.644344 0.532410
vt 0.656939 0.526630
vt 0.483862 0.482183
vt 0.485699 0.472928
vt 0.216022 0.514210
vt 0.208610 0.503891
vt 0.179936 0.969360
vt 0.174173 0.957040
vt 0.899618 0.709910
vt 0.961711 0.714828
s 1
usemtl TreeStump01:None
f 31/1/1 96/2/1 97/3/1 59/4/1
f 32/5/2 90/6/2 99/7/2 53/8/2
f 35/9/3 92/10/3 100/11/3 47/12/3
f 38/13/4 94/14/4 102/15/4 41/16/4
f 28/17/5 11/18/5 2/19/5 24/20/5
f 20/21/6 26/22/6 23/23/6 6/24/6
f 26/22/7 28/17/7 24/20/7 23/23/7
f 8/25/8 16/26/8 25/27/8 19/28/8
f 80/29/9 81/30/10 26/22/11 20/21/9
f 16/26/12 15/31/12 27/32/12 25/27/12
f 81/30/10 82/33/13 28/17/13 26/22/11
f 15/31/14 4/34/14 12/35/14 27/32/14
f 82/33/15 78/36/15 11/18/15 28/17/15
f 44/37/16 95/38/16 96/2/16 31/1/16
f 41/16/17 102/15/17 95/38/17 44/37/17
f 50/39/18 93/40/18 94/14/18 38/13/18
f 88/41/19 101/42/19 93/40/19 50/39/19
f 56/43/20 91/44/20 92/10/20 35/9/20
f 53/8/21 99/7/21 91/44/21 56/43/21
f 62/45/22 89/46/22 90/6/22 32/5/22
f 85/47/23 98/48/23 89/46/23 62/45/23
f 77/49/24 83/50/24 64/51/24 9/52/24
f 83/50/25 84/53/25 63/54/25 64/51/25
f 84/53/26 85/47/26 62/45/26 63/54/26
f 9/52/27 64/51/27 34/55/27 3/56/27
f 64/51/28 63/54/28 33/57/28 34/55/28
f 63/54/29 62/45/29 32/5/29 33/57/29
f 14/58/30 55/59/30 58/60/30 13/61/30
f 55/62/31 54/63/31 66/64/31 67/65/31
f 56/66/32 57/67/32 69/68/32 68/69/32
f 13/61/33 58/60/33 37/70/33 7/71/33
f 58/60/34 57/72/34 36/73/34 37/70/34
f 57/72/35 56/43/35 35/9/35 36/73/35
f 79/74/36 86/75/36 52/76/36 17/77/36
f 86/75/37 87/78/37 51/79/37 52/76/37
f 87/78/38 88/41/38 50/39/38 51/79/38
f 17/77/39 52/76/39 40/80/39 5/81/39
f 52/76/40 51/79/40 39/82/40 40/80/40
f 51/79/41 50/39/41 38/13/41 39/82/41
f 22/83/42 43/84/42 46/85/42 21/86/42
f 43/84/43 42/87/43 45/88/43 46/85/43
f 42/87/44 41/16/44 44/37/44 45/88/44
f 21/86/45 46/85/45 29/89/45 1/90/45
f 46/85/46 45/88/46 30/91/46 29/89/46
f 45/88/47 44/37/47 31/1/47 30/91/47
f 5/81/48 40/80/48 43/84/48 22/83/48
f 40/80/49 39/82/49 42/87/49 43/84/49
f 39/82/50 38/13/50 41/16/50 42/87/50
f 7/71/51 37/70/51 49/92/51 18/93/51
f 37/70/52 36/73/52 48/94/52 49/92/52
f 36/73/53 35/9/53 47/12/53 48/94/53
f 3/56/54 34/55/54 55/59/54 14/58/54
f 34/55/55 33/57/55 54/95/55 55/59/55
f 33/57/56 32/5/56 53/8/56 54/95/56
f 1/90/57 29/89/57 61/96/57 10/97/57
f 29/89/58 30/91/58 60/98/58 61/96/58
f 30/91/59 31/1/59 59/4/59 60/98/59
f 134/99/60 133/100/60 76/101/60 75/102/60
f 132/103/61 131/104/61 71/105/61 72/106/61
f 53/107/62 56/66/62 68/69/62 65/108/62
f 58/109/63 55/110/63 67/111/63 70/112/63
f 57/67/64 58/109/64 70/112/64 69/68/64
f 54/63/65 53/107/65 65/108/65 66/64/65
f 73/113/66 72/114/66 75/115/66 76/116/66
f 72/114/67 71/105/67 74/117/67 75/115/67
f 135/118/68 132/103/68 72/106/68 73/119/68
f 131/104/69 136/120/69 74/117/69 71/105/69
f 133/100/70 135/121/70 73/122/70 76/101/70
f 136/120/71 134/99/71 75/102/71 74/117/71
f 48/94/72 47/12/72 88/123/72 87/124/72
f 49/92/73 48/94/73 87/124/73 86/125/73
f 18/93/74 49/92/74 86/125/74 79/126/74
f 60/98/75 59/4/75 85/127/75 84/128/75
f 61/96/76 60/98/76 84/128/76 83/129/76
f 10/97/77 61/96/77 83/129/77 77/130/77
f 59/4/78 97/3/78 98/131/78 85/127/78
f 47/12/79 100/11/79 101/132/79 88/123/79
f 27/32/80 12/35/80 78/36/80 82/33/80
f 25/27/81 27/32/81 82/33/81 81/30/81
f 19/28/82 25/27/82 81/30/82 80/29/82
f 100/11/83 92/10/83 106/133/83 114/134/83
f 23/23/84 24/20/85 123/135/85 130/136/86
f 96/2/87 95/38/87 109/137/87 110/138/87
f 6/24/88 23/23/84 130/136/86 122/139/88
f 80/29/89 20/21/89 121/140/89 129/141/89
f 94/14/90 93/40/90 107/142/90 108/143/90
f 8/25/91 19/28/91 128/144/91 120/145/91
f 91/44/92 99/7/92 113/146/92 105/147/92
f 15/31/93 16/26/93 119/148/93 127/149/93
f 92/10/94 91/44/94 105/147/94 106/133/94
f 99/7/95 90/6/95 104/150/95 113/146/95
f 4/34/96 15/31/96 127/149/96 118/151/96
f 78/36/97 12/35/97 117/152/97 126/153/97
f 90/6/98 89/46/98 103/154/98 104/150/98
f 117/155/99 118/156/99 104/150/99 103/154/99
f 119/157/100 120/158/100 106/133/100 105/147/100
f 121/159/101 122/160/101 108/143/101 107/142/101
f 123/161/102 124/162/102 110/138/102 109/137/102
f 124/162/103 125/163/103 111/164/103 110/138/103
f 126/165/104 117/155/104 103/154/104 112/166/104
f 118/156/105 127/167/105 113/146/105 104/150/105
f 127/167/106 119/157/106 105/147/106 113/146/106
f 120/158/107 128/168/107 114/134/107 106/133/107
f 129/169/108 121/159/108 107/142/108 115/170/108
f 122/160/109 130/171/109 116/172/109 108/143/109
f 130/171/110 123/161/110 109/137/110 116/172/110
f 125/163/111 126/173/111 112/174/111 111/164/111
f 128/168/112 129/175/112 115/176/112 114/134/112
f 11/18/113 78/36/113 126/153/113 125/177/113
f 93/40/114 101/42/114 115/170/114 107/142/114
f 19/28/115 80/29/115 129/141/115 128/144/115
f 98/131/116 97/3/116 111/164/116 112/174/116
f 12/35/117 4/34/117 118/151/117 117/152/117
f 16/26/118 8/25/118 120/145/118 119/148/118
f 97/3/119 96/2/119 110/138/119 111/164/119
f 101/132/120 100/11/120 114/134/120 115/176/120
f 20/21/121 6/24/121 122/139/121 121/140/121
f 89/46/122 98/48/122 112/166/122 103/154/122
f 102/15/123 94/14/123 108/143/123 116/172/123
f 24/20/124 2/19/124 124/178/124 123/135/124
f 95/38/125 102/15/125 116/172/125 109/137/125
f 2/19/126 11/18/126 125/177/126 124/178/126
f 68/69/127 69/68/127 134/99/127 136/120/127
f 70/112/128 67/111/128 135/121/128 133/100/128
f 65/108/129 68/69/129 136/120/129 131/104/129
f 67/65/130 66/64/130 132/103/130 135/118/130
f 66/64/131 65/108/131 131/104/131 132/103/131
f 69/68/132 70/112/132 133/100/132 134/99/132
